<?xml version="1.0" standalone="no"?>
<!DOCTYPE svg PUBLIC "-//W3C//DTD SVG 1.0//EN" "http://www.w3.org/TR/2001/REC-SVG-20010904/DTD/svg10.dtd">
<svg xmlns="http://www.w3.org/2000/svg" xmlns:xlink="http://www.w3.org/1999/xlink" id="body_1" width="91" height="139">

<g transform="matrix(1 0 0 1 0 0)">
	<g>
        <path d="M10 52C 10 52 26.7252 36.9285 35.5024 30.5C 45.6482 23.0692 39.5212 1.94065 52 3.50015C 57.9151 4.23937 61 14.5 61 14.5C 61 14.5 71.8697 14.8068 72 19.5001C 72.2048 26.881 77.5 24.4999 77.5 29C 77.5 33.5 80.8047 37.096 77.5 45.5C 75.7719 49.8946 70.9709 59.3866 72 66.5C 72.8325 72.2544 69.5392 75.7321 72 81C 75.5244 88.5446 75.5 86.5 80.5024 94.5C 82.9502 98.4146 87 101.986 87 106.5C 87 111.014 87 115 82.5 118.5C 78 122 73.4206 122.414 66.5 122.414C 60.5024 122.414 52.2859 122.414 48 120.914C 40.9496 118.447 36.873 117.198 29.5 116C 15.2897 113.691 3.5 135 3.5 135L3.5 135L10 52z" stroke="none" fill="none" />
	</g>
</g>
</svg>