<svg width="524" height="617" viewBox="0 0 524 617" fill="none" xmlns="http://www.w3.org/2000/svg">
<path fill-rule="evenodd" clip-rule="evenodd" d="M440.451 0C445.652 2.57804 451.079 4.87717 456.708 6.86664C478.432 14.5425 501.109 17.5231 524 18.3993V20.4187C500.873 19.5441 477.938 16.5146 455.905 8.73399C448.949 6.27177 442.303 3.3368 436 0H440.451Z" fill="white" fill-opacity="0.05"/>
<path fill-rule="evenodd" clip-rule="evenodd" d="M362.936 0C385.812 23.0643 416.5 40.8923 451.575 50.6562C475.144 57.2174 499.481 60.4116 524 61.9526V63.9194C499.289 62.3785 474.728 59.1556 450.924 52.5286C414.803 42.4697 383.271 23.9625 360 0H362.936Z" fill="white" fill-opacity="0.05"/>
<path fill-rule="evenodd" clip-rule="evenodd" d="M311.692 0C312.332 0.804106 312.94 1.60899 313.591 2.41309C348.531 45.5192 400.018 75.5348 462.467 89.2139C482.836 93.6703 503.738 96.7952 524 99.2277V101.206C503.578 98.7725 482.496 95.6204 461.945 91.1253C398.97 77.3338 347.057 47.0522 311.807 3.55916C310.848 2.37665 309.93 1.19259 309 0H311.692Z" fill="white" fill-opacity="0.05"/>
<path fill-rule="evenodd" clip-rule="evenodd" d="M524 144.706C519.273 143.521 514.557 142.353 509.904 141.206C460.293 128.923 408.996 116.223 364.358 91.6686C322.121 68.4239 290.001 36.6185 259 0H261.764C292.315 35.9537 324.031 67.162 365.509 89.9891C409.881 114.402 461.03 127.062 510.49 139.307C514.939 140.407 519.466 141.529 524 142.658V144.706Z" fill="white" fill-opacity="0.05"/>
<path fill-rule="evenodd" clip-rule="evenodd" d="M6.54285 47.0967C10.8652 30.964 17.7162 15.0699 26.5505 0H29.0136C20.0194 15.1926 13.053 31.2499 8.67822 47.5605C-4.39355 96.2794 2.13843 148.242 29.8458 216.041C54.4186 276.151 82.3952 329.555 113.008 374.773C138.157 411.921 169.226 441.994 202.122 473.832C210.626 482.073 219.428 490.59 228.041 499.173C236.98 508.069 245.88 517.258 254.49 526.146C266.537 538.587 278.999 551.438 291.717 563.702C294.182 566.061 296.691 568.548 299.26 571.088C315.511 587.135 333.928 605.315 355.759 612.2C361.732 614.079 367.836 615.046 373.917 615.046H373.928C417.335 615.027 452.844 566.679 466.095 545.891C489.985 508.41 507.611 467.648 524 427.484V433.203C508.156 471.802 490.977 510.819 468.005 546.868C451.306 573.062 416.876 617 373.928 617H373.917C367.591 617 361.232 616.013 355.032 614.059C332.667 607.005 314.06 588.625 297.639 572.407C295.066 569.874 292.561 567.399 290.106 565.038C277.356 552.757 264.893 539.887 252.825 527.445C244.226 518.557 235.328 509.378 226.406 500.482C217.807 491.918 209.005 483.401 200.501 475.17C167.53 443.257 136.385 413.115 111.13 375.797C80.4442 330.465 52.4039 276.947 27.7768 216.715C-0.0817261 148.537 -6.63379 96.2235 6.54285 47.0967Z" fill="white" fill-opacity="0.05"/>
<path fill-rule="evenodd" clip-rule="evenodd" d="M524 208.626C522.503 206.995 520.901 205.393 519.147 203.837C498.258 185.346 471.008 174.148 444.656 163.319C441.011 161.81 437.355 160.313 433.731 158.796C388.135 139.734 329.038 112.473 276.303 70.5593C267.227 63.3428 258.321 55.2833 248.905 46.7485C229.778 29.4427 210.236 11.7594 188 0H192.245C213.412 11.8347 232.129 28.7692 250.464 45.3736C259.86 53.8796 268.745 61.9119 277.767 69.0896C330.3 110.842 389.214 138.008 434.671 157.013C438.285 158.53 441.931 160.027 445.587 161.526C472.109 172.431 499.53 183.706 520.697 202.442C521.861 203.469 522.952 204.521 524 205.591V208.626Z" fill="white" fill-opacity="0.05"/>
<path fill-rule="evenodd" clip-rule="evenodd" d="M39.8345 56.9614C47.9415 35.5373 63.6332 14.0082 85.0161 0H88.8408C66.5488 13.6664 50.2166 35.6787 41.9179 57.5868C27.0811 96.7485 29.2275 142.318 48.4648 196.909C66.3782 247.706 94.5232 301.595 129.878 352.743C161.014 397.793 200.47 432.827 250.13 471.57C252.34 473.297 254.625 475.099 256.997 476.958C288.668 501.882 332.045 536.024 374.31 536.024H374.322C381.009 536.024 387.523 535.133 393.677 533.387C435.761 521.419 460.008 483.682 479.95 444.674C498.931 407.542 512.292 368.25 524 329.117V336.668C512.774 373.541 499.861 410.454 481.947 445.498C461.802 484.904 437.247 523.06 394.34 535.265C387.972 537.068 381.243 537.988 374.322 537.988C374.31 537.988 374.31 537.988 374.31 537.988C331.211 537.988 287.472 503.57 255.544 478.436C253.173 476.577 250.887 474.777 248.688 473.06C198.869 434.193 159.283 399.035 128.008 353.778C92.557 302.496 64.3263 248.456 46.3709 197.498C26.9743 142.499 24.8375 96.5193 39.8345 56.9614Z" fill="white" fill-opacity="0.05"/>
<path fill-rule="evenodd" clip-rule="evenodd" d="M141.494 52.7865C166.809 52.7865 196.909 64.8432 230.957 88.6166C281.683 124.038 335.689 154.732 386.491 182.627C389.545 184.305 392.641 185.984 395.746 187.661C415.778 198.476 436.48 209.671 452.005 225.283C473.786 247.198 479.22 275.616 479.936 295.597C480.127 301.121 480.075 307.161 479.754 314.06C470.635 365.445 456.424 417.863 414.645 452.384C399.623 464.783 381.994 471.077 362.253 471.077H362.242C325.865 471.077 288.497 450.148 263.542 434.403C179.909 381.645 115.942 296.449 83.431 194.533C72.028 158.779 60.4343 107.46 91.268 74.6932C104.957 60.1609 121.849 52.7865 141.494 52.7865ZM362.242 473.039H362.253C382.572 473.039 400.702 466.575 416.131 453.824C458.412 418.896 472.75 366.1 481.942 314.25C482.275 307.188 482.327 301.103 482.135 295.529C481.398 275.225 475.868 246.326 453.649 223.974C437.912 208.145 417.049 196.874 396.879 185.974C393.783 184.296 390.697 182.627 387.643 180.951C336.895 153.082 282.954 122.427 232.302 87.0636C197.868 63.0145 167.312 50.8157 141.494 50.8157C121.176 50.8157 103.708 58.4277 89.5826 73.422C58.0745 106.911 69.7758 158.884 81.317 195.073C113.957 297.416 178.223 382.99 262.272 436.014C287.46 451.91 325.247 473.039 362.242 473.039Z" fill="white" fill-opacity="0.05"/>
<path opacity="0.8" fill-rule="evenodd" clip-rule="evenodd" d="M426.593 333.531C422.364 356.667 410.044 397.171 374.916 410.612C365.231 414.319 354.822 416.195 343.963 416.195C314.538 416.195 280.99 402.697 244.249 376.063C184.746 332.943 138.535 258.572 126.503 186.59C122.734 164.05 122.575 134.921 143.212 124.077C149.641 120.704 157.06 118.987 165.282 118.987C193.363 118.987 226.622 138.703 248.627 151.746C251.104 153.216 253.464 154.61 255.686 155.909C268.434 163.34 281.608 170.551 294.356 177.518C320.175 191.633 346.857 206.229 370.912 223.245C388.178 235.454 402.527 250.06 416.086 269.188C428.238 286.346 427.49 307.814 426.763 328.573C426.711 330.231 426.645 331.891 426.593 333.531ZM343.963 424.071H343.975C356.016 424.062 367.601 421.977 378.386 417.844C417.508 402.877 430.864 359.218 435.338 334.525L435.39 334.005C435.445 332.289 435.497 330.563 435.561 328.819C436.297 307.891 437.12 284.174 423.527 264.98C409.423 245.074 394.445 229.85 376.378 217.074C351.908 199.765 324.99 185.044 298.96 170.807C286.264 163.859 273.131 156.685 260.501 149.319C258.29 148.031 255.952 146.646 253.496 145.187C230.605 131.623 196.022 111.12 165.282 111.12C155.471 111.12 146.545 113.196 138.749 117.291C118.783 127.784 111.737 151.489 117.79 187.747C130.133 261.567 177.593 337.891 238.708 382.175C277.049 409.976 312.465 424.071 343.963 424.071Z" fill="white" fill-opacity="0.05"/>
<path fill-rule="evenodd" clip-rule="evenodd" d="M224.775 207.813C246.311 207.813 275.756 221.206 286.852 226.25C313.234 238.248 373.752 271.89 365.786 324.97C357.778 350.924 337.182 356.394 321.316 356.394C306.167 356.403 288.197 351.274 272 342.327C251.082 330.773 233.123 313.918 220.067 293.576C213.338 283.094 192.134 246.876 201.605 220.857C204.755 212.203 212.548 207.813 224.775 207.813ZM321.316 358.364C337.952 358.364 359.53 352.639 367.933 325.36C376.122 270.904 314.653 236.686 287.844 224.496C276.633 219.397 246.844 205.851 224.774 205.851C211.481 205.851 202.982 210.694 199.501 220.25C189.753 247.037 211.322 283.899 218.155 294.553C231.393 315.179 249.608 332.279 270.845 344.005C287.374 353.132 305.77 358.364 321.316 358.364Z" fill="white" fill-opacity="0.05"/>
</svg>
